<?xml version="1.0" encoding="UTF-8"?>
<svg version="1.1" xmlns="http://www.w3.org/2000/svg" width="512" height="512">
<path d="M0 0 C13.2 0 26.4 0 40 0 C40.33 37.29 40.66 74.58 41 113 C44.63 109.04 48.26 105.08 52 101 C52.66 101 53.32 101 54 101 C54 100.34 54 99.68 54 99 C55.36108398 97.65795898 55.36108398 97.65795898 57.30859375 96.05859375 C62.32654137 91.78952759 66.97345372 87.17743884 71.6184082 82.51196289 C73.06025221 81.06475615 74.50737116 79.62297974 75.95507812 78.18164062 C80.66623327 73.47366158 85.24857246 68.70338529 89.58520508 63.64624023 C91.26153519 61.69568045 93.00461755 59.82905204 94.8125 58 C95.37582031 57.4225 95.93914062 56.845 96.51953125 56.25 C98 55 98 55 100 55 C100 54.34 100 53.68 100 53 C100.66 53 101.32 53 102 53 C102.38671875 52.12601563 102.38671875 52.12601563 102.78125 51.234375 C104.09834017 48.8197097 105.55088384 47.18259823 107.5 45.25 C108.1084375 44.63640625 108.716875 44.0228125 109.34375 43.390625 C111 42 111 42 113 42 C113.20496094 41.46632812 113.40992188 40.93265625 113.62109375 40.3828125 C115.57832646 37.00062566 118.2596965 34.56962512 121.0625 31.875 C125.0044894 28.30446634 125.0044894 28.30446634 128 24 C128.66 24 129.32 24 130 24 C130.39638672 23.11441406 130.39638672 23.11441406 130.80078125 22.2109375 C132.04376865 19.919306 133.32690143 18.43876428 135.1875 16.625 C135.80238281 16.02558594 136.41726562 15.42617187 137.05078125 14.80859375 C139.50052791 12.53558232 142.0313296 10.37794775 144.6171875 8.26171875 C146.13577638 7.02785702 146.13577638 7.02785702 147 5 C147.66 5 148.32 5 149 5 C149 4.34 149 3.68 149 3 C149.66 3 150.32 3 151 3 C151 2.34 151 1.68 151 1 C153.63715096 -0.31857548 155.5983264 -0.11991704 158.55126953 -0.11352539 C159.71232208 -0.11344986 160.87337463 -0.11337433 162.0696106 -0.11329651 C163.32796722 -0.10813522 164.58632385 -0.10297394 165.8828125 -0.09765625 C167.16735321 -0.0962413 168.45189392 -0.09482635 169.77536011 -0.09336853 C173.19156842 -0.08954911 176.60773426 -0.07972373 180.02392578 -0.06866455 C183.50943426 -0.05843807 186.9949496 -0.05386826 190.48046875 -0.04882812 C197.32032995 -0.03810096 204.16016294 -0.02103142 211 0 C210.1570259 4.16783822 208.40580855 5.96794249 205.37890625 8.984375 C204.9189476 9.44483215 204.45898895 9.90528931 203.98509216 10.37969971 C203.01440344 11.34805383 202.04003424 12.31273083 201.06225586 13.27392578 C199.56244425 14.75005487 198.07648806 16.23914838 196.59179688 17.73046875 C189.2668115 25 189.2668115 25 187 25 C187 25.66 187 26.32 187 27 C185.625 28.625 185.625 28.625 184 30 C183.34 30 182.68 30 182 30 C181.60896843 30.87900719 181.60896843 30.87900719 181.21003723 31.77577209 C179.9223712 34.14269325 178.54802058 35.69310509 176.6394043 37.58764648 C175.9549675 38.27193222 175.2705307 38.95621796 174.56535339 39.66123962 C173.82577896 40.39049149 173.08620453 41.11974335 172.32421875 41.87109375 C171.56204544 42.63043716 170.79987213 43.38978058 170.01460266 44.1721344 C167.57689176 46.59865978 165.13233244 49.01815209 162.6875 51.4375 C161.0522755 53.06268947 159.41750458 54.68833545 157.78320312 56.31445312 C154.16517739 59.91285019 150.5428183 63.50681898 146.91654968 67.09690857 C144.60514808 69.39207922 142.30286354 71.69626327 140 74 C138.13344069 75.86187709 136.26659581 77.72346424 134.39941406 79.5847168 C128.97340653 84.99445054 123.54989175 90.40667601 118.12782669 95.82036114 C114.85296983 99.08997543 111.57717374 102.35863768 108.29931641 105.62524414 C105.12076347 108.79296083 101.94463408 111.96308867 98.77019501 115.13492775 C97.56057265 116.34270012 96.3500694 117.54959091 95.1386795 118.75559044 C93.45113618 120.43591169 91.76671074 122.11929871 90.08300781 123.8034668 C89.32874763 124.55233406 89.32874763 124.55233406 88.55924988 125.31632996 C85.95071083 127.91012609 85.95071083 127.91012609 84 131 C83.34 131 82.68 131 82 131 C82 131.66 82 132.32 82 133 C81.34 133 80.68 133 80 133 C80 133.66 80 134.32 80 135 C79.34 135 78.68 135 78 135 C78 135.66 78 136.32 78 137 C77.34 137 76.68 137 76 137 C76 137.66 76 138.32 76 139 C75.34 139 74.68 139 74 139 C74 139.66 74 140.32 74 141 C72.01739574 142.68732277 70.0167658 144.35366057 68 146 C67.67 146.66 67.34 147.32 67 148 C66.34 148 65.68 148 65 148 C64.34 149.32 63.68 150.64 63 152 C62.34 152 61.68 152 61 152 C61 152.66 61 153.32 61 154 C59.37373596 155.38232443 57.7074998 156.71937515 56 158 C56.32432407 161.06382739 56.98901487 161.98970965 59.28515625 164.140625 C60.20167969 164.83671875 61.11820313 165.5328125 62.0625 166.25 C62.98160156 166.95640625 63.90070313 167.6628125 64.84765625 168.390625 C65.55792969 168.92171875 66.26820313 169.4528125 67 170 C67 169.34 67 168.68 67 168 C67.66 168 68.32 168 69 168 C69.22558594 167.44570313 69.45117188 166.89140625 69.68359375 166.3203125 C71.38866286 163.31493845 73.57799951 161.27012997 76.0625 158.875 C79.46453483 155.75894235 79.46453483 155.75894235 82 152 C82.66 152 83.32 152 84 152 C84 151.34 84 150.68 84 150 C84.66 150 85.32 150 86 150 C86.24105469 149.4328125 86.48210937 148.865625 86.73046875 148.28125 C90.1601612 142.11835649 96.51213134 137.28739739 102 133 C102.33 132.34 102.66 131.68 103 131 C103.66 131 104.32 131 105 131 C105 130.34 105 129.68 105 129 C105.66 129 106.32 129 107 129 C107 128.34 107 127.68 107 127 C108.98260426 125.31267723 110.9832342 123.64633943 113 122 C113.33 121.34 113.66 120.68 114 120 C114.66 120 115.32 120 116 120 C116 119.34 116 118.68 116 118 C116.66 118 117.32 118 118 118 C118 117.34 118 116.68 118 116 C118.66 116 119.32 116 120 116 C120 115.34 120 114.68 120 114 C120.66 114 121.32 114 122 114 C122.25652344 113.41476562 122.51304687 112.82953125 122.77734375 112.2265625 C124.10562162 109.80765392 125.56524801 108.26801128 127.5625 106.375 C130.14015389 103.95478041 130.14015389 103.95478041 132 101 C132.66 101 133.32 101 134 101 C134 100.34 134 99.68 134 99 C134.66 99 135.32 99 136 99 C136 98.34 136 97.68 136 97 C136.66 97 137.32 97 138 97 C138 96.34 138 95.68 138 95 C141 93 141 93 143.45361328 93.16772461 C146.3408132 94.11139331 147.63211647 95.1550153 149.7421875 97.31640625 C150.41636719 97.99896484 151.09054687 98.68152344 151.78515625 99.38476562 C152.47480469 100.10341797 153.16445313 100.82207031 153.875 101.5625 C154.55691406 102.25408203 155.23882812 102.94566406 155.94140625 103.65820312 C159.24043691 107.02949826 162.43263104 110.46186166 165.51171875 114.03515625 C169.74000126 118.92704087 174.36910258 123.38648676 179.00976562 127.8828125 C179.65494141 128.51703125 180.30011719 129.15125 180.96484375 129.8046875 C181.5487085 130.37171387 182.13257324 130.93874023 182.73413086 131.52294922 C184 133 184 133 184 135 C185.65 135.66 187.3 136.32 189 137 C189 137.66 189 138.32 189 139 C189.66 139 190.32 139 191 139 C191 139.66 191 140.32 191 141 C196.75827633 136.09445565 202.19256777 130.94662166 207.52734375 125.58618164 C208.7434156 124.37032883 208.7434156 124.37032883 209.98405457 123.12991333 C212.63758302 120.47569354 215.28756133 117.81795961 217.9375 115.16015625 C219.78672766 113.30906164 221.63617763 111.45818908 223.48583984 109.60752869 C227.84021024 105.25006458 232.1920278 100.89006035 236.54290771 96.52911133 C241.50109944 91.55969722 246.46217039 86.5931617 251.42347145 81.62685215 C261.61882819 71.42107547 271.8106094 61.21173321 282 51 C282.99 51.33 283.98 51.66 285 52 C285.16271209 60.07583258 285.28682812 68.15097232 285.3626852 76.2280426 C285.39910707 79.97928051 285.44844648 83.72939124 285.52807617 87.47998047 C285.60454346 91.10460355 285.64607325 94.72814777 285.6641407 98.35351562 C285.67700314 99.73145522 285.70212196 101.10934051 285.7401104 102.48681641 C286.06095026 114.6108173 286.06095026 114.6108173 281.75537109 119.6015625 C280.52929695 120.76215953 279.27924955 121.89829048 278 123 C276.75899536 124.31291016 276.75899536 124.31291016 275.49291992 125.65234375 C273.0629013 128.10674909 270.62880613 130.55681738 268.1875 133 C267.32962891 133.87011719 266.47175781 134.74023438 265.58789062 135.63671875 C264.76869141 136.45785156 263.94949219 137.27898437 263.10546875 138.125 C262.36449951 138.87007812 261.62353027 139.61515625 260.86010742 140.3828125 C259 142 259 142 257 142 C256.7628125 142.56203125 256.525625 143.1240625 256.28125 143.703125 C254.71052303 146.51894042 252.78528536 148.47955416 250.5 150.75 C249.30890625 151.94882812 249.30890625 151.94882812 248.09375 153.171875 C246 155 246 155 244 155 C243.71125 155.598125 243.4225 156.19625 243.125 156.8125 C242 159 242 159 240 162 C239.34 162 238.68 162 238 162 C237.67 162.99 237.34 163.98 237 165 C236.34 165 235.68 165 235 165 C235 165.66 235 166.32 235 167 C234.34 167 233.68 167 233 167 C233 167.66 233 168.32 233 169 C231.53125 170.4453125 231.53125 170.4453125 229.5 172.125 C225.6500766 175.37893881 222.13935665 178.84772718 218.6640625 182.49609375 C217 184 217 184 215 184 C215 184.66 215 185.32 215 186 C214.34 186 213.68 186 213 186 C212.77441406 186.55429687 212.54882812 187.10859375 212.31640625 187.6796875 C210.61133714 190.68506155 208.42200049 192.72987003 205.9375 195.125 C202.53546517 198.24105765 202.53546517 198.24105765 200 202 C199.34 202 198.68 202 198 202 C198 202.66 198 203.32 198 204 C197.34 204 196.68 204 196 204 C196 204.66 196 205.32 196 206 C192.71245489 205.42110619 191.06327505 204.45171589 188.75 202.0625 C188.22921875 201.53785156 187.7084375 201.01320313 187.171875 200.47265625 C186 199 186 199 186 197 C185.42065704 196.74597412 184.84131409 196.49194824 184.24441528 196.23022461 C181.74818645 194.8619742 180.09410512 193.33464302 178.08935547 191.31640625 C176.95830887 190.18513306 176.95830887 190.18513306 175.80441284 189.03100586 C175.00012848 188.21639893 174.19584412 187.40179199 173.3671875 186.5625 C172.53414093 185.72662354 171.70109436 184.89074707 170.84280396 184.02954102 C168.18213929 181.35768438 165.52850799 178.67896246 162.875 176 C161.0798871 174.19485492 159.28431951 172.39016189 157.48828125 170.5859375 C153.54004179 166.61802143 149.59622277 162.64577146 145.65621948 158.66967773 C144.44018523 157.44376212 143.22098493 156.22098493 142 155 C140.64508116 156.49932062 139.29111322 157.99950054 137.9375 159.5 C137.12023437 160.40492188 136.30296875 161.30984375 135.4609375 162.2421875 C132.71946584 165.31437638 130.05093951 168.44261137 127.41015625 171.6015625 C126 173 126 173 124 173 C124 173.66 124 174.32 124 175 C123.34 175 122.68 175 122 175 C122 175.66 122 176.32 122 177 C121.34 177 120.68 177 120 177 C120 177.66 120 178.32 120 179 C119.34 179 118.68 179 118 179 C118 179.66 118 180.32 118 181 C117.34 181 116.68 181 116 181 C116 181.66 116 182.32 116 183 C114.5378418 184.44091797 114.5378418 184.44091797 112.51171875 186.1171875 C108.05077394 189.91110269 103.92577145 193.96055867 99.8125 198.125 C99.12736328 198.81464844 98.44222656 199.50429688 97.73632812 200.21484375 C96.41517091 201.54490192 95.09535692 202.87629611 93.77709961 204.20922852 C92.23306124 205.76514573 90.67733303 207.30794559 89.1171875 208.84765625 C86.96202424 210.93367511 86.96202424 210.93367511 85.3125 213.3125 C84.879375 213.869375 84.44625 214.42625 84 215 C83.34 215 82.68 215 82 215 C82 215.66 82 216.32 82 217 C81.34 217 80.68 217 80 217 C80 217.66 80 218.32 80 219 C79.34 219 78.68 219 78 219 C78 219.66 78 220.32 78 221 C77.34 221 76.68 221 76 221 C76 221.66 76 222.32 76 223 C75.34 223 74.68 223 74 223 C74 223.66 74 224.32 74 225 C73.34 225 72.68 225 72 225 C71.34 226.32 70.68 227.64 70 229 C67.85546875 229.33984375 67.85546875 229.33984375 65 229 C62.89593185 227.23351402 61.14426487 225.57370306 59.3125 223.5625 C56.02272057 219.81833254 56.02272057 219.81833254 52 217 C52 216.34 52 215.68 52 215 C51.34 215 50.68 215 50 215 C50 214.34 50 213.68 50 213 C49.34 213 48.68 213 48 213 C48 212.34 48 211.68 48 211 C47.34 211 46.68 211 46 211 C46 210.34 46 209.68 46 209 C45.34 209 44.68 209 44 209 C44 208.34 44 207.68 44 207 C43.34 207 42.68 207 42 207 C42 206.34 42 205.68 42 205 C41.34 205 40.68 205 40 205 C40 204.34 40 203.68 40 203 C39.34 203 38.68 203 38 203 C36.6184082 201.59936523 36.6184082 201.59936523 34.98828125 199.62109375 C30.63992263 194.50875816 25.94199099 189.79506405 21.1875 185.0625 C20.32962891 184.20076172 19.47175781 183.33902344 18.58789062 182.45117188 C17.76869141 181.63326172 16.94949219 180.81535156 16.10546875 179.97265625 C14.99401489 178.86289429 14.99401489 178.86289429 13.86010742 177.73071289 C12.1059093 175.93551332 12.1059093 175.93551332 10 175 C10 174.34 10 173.68 10 173 C9.34 173 8.68 173 8 173 C8 172.34 8 171.68 8 171 C7.34 171 6.68 171 6 171 C6 170.34 6 169.68 6 169 C5.34 169 4.68 169 4 169 C4 168.34 4 167.68 4 167 C3.34 167 2.68 167 2 167 C2 166.34 2 165.68 2 165 C1.34 165 0.68 165 0 165 C0 110.55 0 56.1 0 0 Z " fill="#1A3051" transform="translate(114,143)"/>
<path d="M0 0 C13.2 0 26.4 0 40 0 C40.02505615 3.41263184 40.0501123 6.82526367 40.07592773 10.34130859 C40.15925369 21.5930712 40.24790847 32.84478754 40.33933926 44.09648705 C40.39466452 50.921078 40.44814537 57.74567418 40.49731445 64.5703125 C40.54473452 71.15147376 40.59725441 77.73258136 40.65294075 84.31367874 C40.67338465 86.82957255 40.6920943 89.34548104 40.70907402 91.8614006 C40.733073 95.37428876 40.7631337 98.88707501 40.79467773 102.39990234 C40.80331093 103.9740667 40.80331093 103.9740667 40.81211853 105.58003235 C40.82190735 106.53358109 40.83169617 107.48712982 40.84178162 108.46957397 C40.84823417 109.30103125 40.85468672 110.13248852 40.8613348 110.98914146 C40.87540184 113.07132209 40.87540184 113.07132209 42 115 C41.01 115.33 40.02 115.66 39 116 C39 78.05 39 40.1 39 1 C26.79 1 14.58 1 2 1 C2.33 54.13 2.66 107.26 3 162 C3.66 162 4.32 162 5 162 C5 162.99 5 163.98 5 165 C5.66 165.33 6.32 165.66 7 166 C6.67 166.99 6.34 167.98 6 169 C5.34 169 4.68 169 4 169 C4 168.34 4 167.68 4 167 C3.34 167 2.68 167 2 167 C2 166.34 2 165.68 2 165 C1.34 165 0.68 165 0 165 C0 110.55 0 56.1 0 0 Z " fill="#9593A2" transform="translate(114,143)"/>
<path d="M0 0 C0.66 0.33 1.32 0.66 2 1 C-2.00390625 5.00390625 -6.0078125 9.0078125 -10.01171875 13.01171875 C-10.69886963 13.69967529 -11.38602051 14.38763184 -12.09399414 15.09643555 C-13.25131779 16.25227678 -14.41125422 17.40552023 -15.57592773 18.55395508 C-17.4502572 20.40434675 -19.1308104 22.17925869 -20.6875 24.3125 C-21.120625 24.869375 -21.55375 25.42625 -22 26 C-22.66 26 -23.32 26 -24 26 C-24 26.66 -24 27.32 -24 28 C-24.66 28 -25.32 28 -26 28 C-26 28.66 -26 29.32 -26 30 C-26.66 30 -27.32 30 -28 30 C-28.33 30.66 -28.66 31.32 -29 32 C-28.67 29.36 -28.34 26.72 -28 24 C-27.195625 23.7525 -26.39125 23.505 -25.5625 23.25 C-22.828919 22.27761141 -22.828919 22.27761141 -22.1875 19.875 C-22.125625 19.25625 -22.06375 18.6375 -22 18 C-20.68 18 -19.36 18 -18 18 C-18 17.01 -18 16.02 -18 15 C-18.99 14.67 -19.98 14.34 -21 14 C-20.21625 13.2575 -19.4325 12.515 -18.625 11.75 C-15.99387321 9.26345191 -15.99387321 9.26345191 -14.875 6.75 C-14 5 -14 5 -11 4 C-10.67 4.99 -10.34 5.98 -10 7 C-6.64749299 6.42424336 -5.06181371 5.40693737 -2.75 2.9375 C-2.22921875 2.38964844 -1.7084375 1.84179688 -1.171875 1.27734375 C-0.78515625 0.85582031 -0.3984375 0.43429687 0 0 Z " fill="#465169" transform="translate(220,332)"/>
<path d="M0 0 C3.87302138 1.14430177 7.00263439 2.23320098 10 5 C10 5.66 10 6.32 10 7 C11.093125 6.979375 12.18625 6.95875 13.3125 6.9375 C17 7 17 7 20 8 C20.33 8.66 20.66 9.32 21 10 C23.15811388 9.05270463 23.15811388 9.05270463 25 7 C28.125 6.875 28.125 6.875 31 7 C30.04956626 8.33897583 29.08940853 9.67105427 28.125 11 C27.59132813 11.7425 27.05765625 12.485 26.5078125 13.25 C26.01023437 13.8275 25.51265625 14.405 25 15 C24.34 15 23.68 15 23 15 C23 15.66 23 16.32 23 17 C22.34 17 21.68 17 21 17 C21 17.66 21 18.32 21 19 C17.71245489 18.42110619 16.06327505 17.45171589 13.75 15.0625 C13.22921875 14.53785156 12.7084375 14.01320313 12.171875 13.47265625 C11 12 11 12 11 10 C10.41734375 9.74347656 9.8346875 9.48695313 9.234375 9.22265625 C6.80289161 7.89214174 5.18264447 6.41556987 3.25 4.4375 C2.63640625 3.81746094 2.0228125 3.19742187 1.390625 2.55859375 C0 1 0 1 0 0 Z " fill="#42485D" transform="translate(289,330)"/>
<path d="M0 0 C0.66666667 2.66666667 1.33333333 5.33333333 2 8 C0.35 8.66 -1.3 9.32 -3 10 C-3 10.66 -3 11.32 -3 12 C-8.29411765 16 -8.29411765 16 -12 16 C-12.33 16.99 -12.66 17.98 -13 19 C-14.7421875 20.16796875 -14.7421875 20.16796875 -16.875 21.1875 C-17.57367188 21.53167969 -18.27234375 21.87585938 -18.9921875 22.23046875 C-21 23 -21 23 -24 23 C-23.14535156 22.15695312 -22.29070312 21.31390625 -21.41015625 20.4453125 C-20.29413953 19.33867407 -19.17826128 18.23189598 -18.0625 17.125 C-17.49853516 16.56941406 -16.93457031 16.01382812 -16.35351562 15.44140625 C-13.30139972 12.5078429 -13.30139972 12.5078429 -11 9 C-10.34 9 -9.68 9 -9 9 C-9 8.34 -9 7.68 -9 7 C-8.34 7 -7.68 7 -7 7 C-6.6596875 6.1028125 -6.6596875 6.1028125 -6.3125 5.1875 C-4.66188867 2.43648112 -2.8027919 1.47515363 0 0 Z " fill="#1C2B44" transform="translate(207,286)"/>
<path d="M0 0 C0 3 0 3 -2.15234375 5.1640625 C-3.07144531 5.97617188 -3.99054688 6.78828125 -4.9375 7.625 C-8.47226219 11.01518094 -10.64632936 13.16565833 -11.125 18.125 C-11.08375 19.40375 -11.0425 20.6825 -11 22 C-11.99 22.33 -12.98 22.66 -14 23 C-14 22.01 -14 21.02 -14 20 C-14.99 20 -15.98 20 -17 20 C-17 20.66 -17 21.32 -17 22 C-17.99 22.33 -18.98 22.66 -20 23 C-21.04892238 24.63631892 -22.04906703 26.30485863 -23 28 C-23.66 28.66 -24.32 29.32 -25 30 C-25.99 30 -26.98 30 -28 30 C-28.495 32.475 -28.495 32.475 -29 35 C-31.97 35.495 -31.97 35.495 -35 36 C-30.88670129 31.09526099 -26.61457539 26.4780472 -22.0703125 21.97265625 C-21.43511688 21.33887558 -20.79992126 20.70509491 -20.14547729 20.05210876 C-18.14101284 18.05318594 -16.13307786 16.05779216 -14.125 14.0625 C-12.75497611 12.69749867 -11.38518226 11.3322664 -10.015625 9.96679688 C-6.67973457 6.64185789 -3.34072964 3.32007647 0 0 Z " fill="#786E7F" transform="translate(344,246)"/>
<path d="M0 0 C2.94766411 0.96942271 4.3050198 2.09952657 6.4753418 4.2980957 C7.17208008 4.99870117 7.86881836 5.69930664 8.58666992 6.42114258 C9.65498047 7.52619141 9.65498047 7.52619141 10.74487305 8.65356445 C11.46868164 9.37866211 12.19249023 10.10375977 12.93823242 10.85083008 C18.74566219 16.75550053 18.74566219 16.75550053 20.55737305 20.84106445 C19.23737305 20.84106445 17.91737305 20.84106445 16.55737305 20.84106445 C16.55737305 20.18106445 16.55737305 19.52106445 16.55737305 18.84106445 C15.89737305 18.84106445 15.23737305 18.84106445 14.55737305 18.84106445 C14.55737305 18.18106445 14.55737305 17.52106445 14.55737305 16.84106445 C13.69112305 16.74825195 13.69112305 16.74825195 12.80737305 16.65356445 C9.63288822 15.50722271 8.42888729 13.58149603 6.55737305 10.84106445 C6.55737305 10.18106445 6.55737305 9.52106445 6.55737305 8.84106445 C5.81487305 8.59356445 5.07237305 8.34606445 4.30737305 8.09106445 C1.35613243 6.74959145 -0.29077669 5.23200919 -2.44262695 2.84106445 C-2.44262695 3.50106445 -2.44262695 4.16106445 -2.44262695 4.84106445 C-4.09262695 5.17106445 -5.74262695 5.50106445 -7.44262695 5.84106445 C-7.44262695 5.18106445 -7.44262695 4.52106445 -7.44262695 3.84106445 C-6.78262695 3.84106445 -6.12262695 3.84106445 -5.44262695 3.84106445 C-5.44262695 3.18106445 -5.44262695 2.52106445 -5.44262695 1.84106445 C-2.44262695 -0.15893555 -2.44262695 -0.15893555 0 0 Z " fill="#2A3246" transform="translate(257.442626953125,236.158935546875)"/>
<path d="M0 0 C1.16105255 0.00007553 2.3221051 0.00015106 3.51834106 0.00022888 C4.77669769 0.00539017 6.03505432 0.01055145 7.33154297 0.01586914 C8.61608368 0.01728409 9.90062439 0.01869904 11.22409058 0.02015686 C14.64029889 0.02397628 18.05646473 0.03380166 21.47265625 0.04486084 C24.95816473 0.05508732 28.44368006 0.05965713 31.92919922 0.06469727 C38.76906042 0.07542444 45.60889341 0.09249397 52.44873047 0.11352539 C51.65146825 3.96091958 50.2945641 5.61932867 47.44873047 8.36352539 C46.72685547 9.06993164 46.00498047 9.77633789 45.26123047 10.50415039 C43.44873047 12.11352539 43.44873047 12.11352539 42.44873047 12.11352539 C42.44873047 10.46352539 42.44873047 8.81352539 42.44873047 7.11352539 C43.10873047 7.11352539 43.76873047 7.11352539 44.44873047 7.11352539 C44.77873047 6.12352539 45.10873047 5.13352539 45.44873047 4.11352539 C46.10873047 4.11352539 46.76873047 4.11352539 47.44873047 4.11352539 C47.44873047 3.12352539 47.44873047 2.13352539 47.44873047 1.11352539 C40.74084623 1.23155352 34.03311262 1.3563741 27.32543945 1.48583984 C25.04519491 1.52905879 22.76492072 1.57074267 20.48461914 1.61083984 C17.20043009 1.66885932 13.91638848 1.73246154 10.63232422 1.79711914 C9.61851181 1.81383163 8.6046994 1.83054413 7.56016541 1.84776306 C2.43343745 1.95422552 -2.49528789 2.24669754 -7.55126953 3.11352539 C-7.55126953 2.45352539 -7.55126953 1.79352539 -7.55126953 1.11352539 C-4.91411857 -0.20505009 -2.95294313 -0.00639165 0 0 Z " fill="#5D5767" transform="translate(272.55126953125,142.886474609375)"/>
<path d="M0 0 C1.32 0.66 2.64 1.32 4 2 C-4.91 10.91 -13.82 19.82 -23 29 C-23.66 28.01 -24.32 27.02 -25 26 C-24.01 25.67 -23.02 25.34 -22 25 C-21.67 24.01 -21.34 23.02 -21 22 C-20.34 21.67 -19.68 21.34 -19 21 C-18.67 20.01 -18.34 19.02 -18 18 C-13.54285714 14 -13.54285714 14 -11 14 C-11 13.01 -11 12.02 -11 11 C-9.25 8.8125 -9.25 8.8125 -7 7 C-5.68 7 -4.36 7 -3 7 C-3.33 6.01 -3.66 5.02 -4 4 C-3.01 4 -2.02 4 -1 4 C-0.67 2.68 -0.34 1.36 0 0 Z " fill="#626277" transform="translate(246,219)"/>
<path d="M0 0 C0 3.62453269 -0.92469613 5.07920195 -3 8 C-3.99 8.33 -4.98 8.66 -6 9 C-6.70674629 10.31252882 -7.36184656 11.65278717 -8 13 C-11.25985569 18.65642944 -13.96099346 20.67730518 -20 23 C-20.33 23.99 -20.66 24.98 -21 26 C-23.4375 27.75 -23.4375 27.75 -26 29 C-26.66 28.67 -27.32 28.34 -28 28 C-18.76 18.76 -9.52 9.52 0 0 Z " fill="#3A3F55" transform="translate(373,217)"/>
<path d="M0 0 C0.99 0.33 1.98 0.66 3 1 C0.22396506 6.11374857 -3.15757888 9.77171925 -8 13 C-9.01868662 13.98095748 -10.02351983 14.97702078 -11 16 C-10.34 16.33 -9.68 16.66 -9 17 C-9.8125 18.9375 -9.8125 18.9375 -11 21 C-11.99 21.33 -12.98 21.66 -14 22 C-14 20.68 -14 19.36 -14 18 C-14.33 19.65 -14.66 21.3 -15 23 C-16.65 22.67 -18.3 22.34 -20 22 C-18.49049406 18.42912573 -16.39393774 16.18614558 -13.625 13.5 C-12.85414063 12.7471875 -12.08328125 11.994375 -11.2890625 11.21875 C-10.53367187 10.4865625 -9.77828125 9.754375 -9 9 C-8.29101562 8.26265625 -7.58203125 7.5253125 -6.8515625 6.765625 C-4.8693699 4.8754329 -3.67496876 4.38213839 -1 4 C-0.67 2.68 -0.34 1.36 0 0 Z " fill="#18253E" transform="translate(353,239)"/>
<path d="M0 0 C0.33 0.66 0.66 1.32 1 2 C0.0625 4.125 0.0625 4.125 -1 6 C-1.66 6 -2.32 6 -3 6 C-3.12375 6.969375 -3.2475 7.93875 -3.375 8.9375 C-3.58125 9.948125 -3.7875 10.95875 -4 12 C-4.99 12.495 -4.99 12.495 -6 13 C-5.67 13.66 -5.34 14.32 -5 15 C-6.28788008 15.53012738 -7.58046678 16.0488329 -8.875 16.5625 C-9.59429687 16.85253906 -10.31359375 17.14257812 -11.0546875 17.44140625 C-13 18 -13 18 -15 17 C-15.33 18.65 -15.66 20.3 -16 22 C-16.99 21.67 -17.98 21.34 -19 21 C-16.4208251 15.73418457 -13.6100251 12.50437818 -9.10546875 8.77734375 C-5.8732528 6.04884977 -2.94704483 3.02993046 0 0 Z " fill="#152640" transform="translate(389,203)"/>
<path d="M0 0 C0.721875 0.103125 1.44375 0.20625 2.1875 0.3125 C-1.81870442 5.23440829 -6.14866202 9.75900752 -10.625 14.25 C-11.21240967 14.84192139 -11.79981934 15.43384277 -12.4050293 16.04370117 C-16.68879543 20.3125 -16.68879543 20.3125 -17.8125 20.3125 C-18 17.9375 -18 17.9375 -17.8125 15.3125 C-14.8125 13.3125 -14.8125 13.3125 -11.8125 13.3125 C-11.4825 11.6625 -11.1525 10.0125 -10.8125 8.3125 C-9.8225 8.3125 -8.8325 8.3125 -7.8125 8.3125 C-7.8125 7.3225 -7.8125 6.3325 -7.8125 5.3125 C-3.83522727 0.42613636 -3.83522727 0.42613636 0 0 Z " fill="#707180" transform="translate(279.8125,187.6875)"/>
<path d="M0 0 C0.66 0 1.32 0 2 0 C2 0.99 2 1.98 2 3 C0.35546875 4.5 0.35546875 4.5 -1.8125 6 C-3.9193021 7.47361021 -5.81999431 8.81072931 -7.59375 10.67578125 C-9 12 -9 12 -11.6875 12.1875 C-12.450625 12.125625 -13.21375 12.06375 -14 12 C-14 12.66 -14 13.32 -14 14 C-14.66 14 -15.32 14 -16 14 C-13.92837757 9.4222197 -10.99761527 6.0381876 -7 3 C-4.50689229 2.1689641 -2.66161576 2.05431869 0 2 C0 1.34 0 0.68 0 0 Z " fill="#252D41" transform="translate(260,153)"/>
<path d="M0 0 C0.33 0.66 0.66 1.32 1 2 C3.02463255 2.65213292 3.02463255 2.65213292 5 3 C4.34 3.66 3.68 4.32 3 5 C2.01 5 1.02 5 0 5 C-0.33 5.99 -0.66 6.98 -1 8 C-2.7421875 9.16796875 -2.7421875 9.16796875 -4.875 10.1875 C-5.57367188 10.53167969 -6.27234375 10.87585938 -6.9921875 11.23046875 C-9 12 -9 12 -12 12 C-8.04 8.04 -4.08 4.08 0 0 Z " fill="#42485F" transform="translate(195,297)"/>
<path d="M0 0 C0 3 0 3 -2.15234375 5.1640625 C-3.07144531 5.97617188 -3.99054688 6.78828125 -4.9375 7.625 C-8.47226219 11.01518094 -10.64632936 13.16565833 -11.125 18.125 C-11.08375 19.40375 -11.0425 20.6825 -11 22 C-11.99 22.33 -12.98 22.66 -14 23 C-14 22.01 -14 21.02 -14 20 C-14.99 19.67 -15.98 19.34 -17 19 C-16.34 18.67 -15.68 18.34 -15 18 C-14.76539063 17.29488281 -14.53078125 16.58976562 -14.2890625 15.86328125 C-12.45986795 11.80025214 -9.56156433 9.24129082 -6.375 6.1875 C-5.76398438 5.59001953 -5.15296875 4.99253906 -4.5234375 4.37695312 C-3.02235161 2.91104894 -1.51207138 1.45457007 0 0 Z " fill="#626472" transform="translate(344,246)"/>
<path d="M0 0 C0.33 0.99 0.66 1.98 1 3 C0.01 3.99 -0.98 4.98 -2 6 C-1.34 6.66 -0.68 7.32 0 8 C-2.66559313 9.77706209 -5.0280615 10.87548273 -8 12 C-8.33 10.02 -8.66 8.04 -9 6 C-6.03 4.02 -3.06 2.04 0 0 Z " fill="#132745" transform="translate(211,202)"/>
<path d="M0 0 C2.13093906 1.06546953 3.36587557 2.29159719 5 4 C4.50628906 4.48210937 4.01257813 4.96421875 3.50390625 5.4609375 C2.86324219 6.09257812 2.22257813 6.72421875 1.5625 7.375 C0.92441406 8.00148438 0.28632813 8.62796875 -0.37109375 9.2734375 C-2.07882176 10.91723061 -2.07882176 10.91723061 -3 13 C-3.66 13 -4.32 13 -5 13 C-4.31740614 5.76450512 -4.31740614 5.76450512 -1 3 C-0.67 2.01 -0.34 1.02 0 0 Z " fill="#51556A" transform="translate(243,303)"/>
<path d="M0 0 C0.66 0.33 1.32 0.66 2 1 C0.7260411 3.03833424 -0.61061923 5.03852126 -2 7 C-2.66 7 -3.32 7 -4 7 C-4.66 8.32 -5.32 9.64 -6 11 C-6.66 11 -7.32 11 -8 11 C-8.33 12.65 -8.66 14.3 -9 16 C-12.75 17.125 -12.75 17.125 -15 16 C-13.71937515 14.2925002 -12.38232443 12.62626404 -11 11 C-10.34 11 -9.68 11 -9 11 C-9 10.34 -9 9.68 -9 9 C-8.34 9 -7.68 9 -7 9 C-7 8.34 -7 7.68 -7 7 C-5.01739574 5.31267723 -3.0167658 3.64633943 -1 2 C-0.67 1.34 -0.34 0.68 0 0 Z " fill="#6F6D79" transform="translate(228,263)"/>
<path d="M0 0 C1 2 1 2 0.3125 4.375 C-1.98895757 8.97791515 -5.39935619 11.75866071 -10 14 C-10.99 13.67 -11.98 13.34 -13 13 C-12.01 12.67 -11.02 12.34 -10 12 C-9.31497615 10.67600432 -8.65140789 9.3408542 -8 8 C-6.67225712 6.5389496 -5.29368324 5.12291926 -3.875 3.75 C-3.15054688 3.04359375 -2.42609375 2.3371875 -1.6796875 1.609375 C-1.12539062 1.07828125 -0.57109375 0.5471875 0 0 Z " fill="#615F70" transform="translate(237,173)"/>
<path d="M0 0 C1.32 0.33 2.64 0.66 4 1 C3.67 2.32 3.34 3.64 3 5 C6.63 7.97 10.26 10.94 14 14 C13.01 14.33 12.02 14.66 11 15 C10.236875 14.195625 9.47375 13.39125 8.6875 12.5625 C6.20569102 9.83200976 6.20569102 9.83200976 3 9 C3 8.34 3 7.68 3 7 C1.35 6.67 -0.3 6.34 -2 6 C-1.34 4.02 -0.68 2.04 0 0 Z " fill="#737281" transform="translate(167,299)"/>
<path d="M0 0 C4.19726616 1.62167102 6.76929157 4.77255381 9.75 8.0625 C8.76 8.0625 7.77 8.0625 6.75 8.0625 C6.1003125 7.381875 6.1003125 7.381875 5.4375 6.6875 C3.15220764 4.4868481 0.75910851 3.93179801 -2.25 3.0625 C-2.25 3.7225 -2.25 4.3825 -2.25 5.0625 C-3.9 5.3925 -5.55 5.7225 -7.25 6.0625 C-7.25 5.4025 -7.25 4.7425 -7.25 4.0625 C-6.59 4.0625 -5.93 4.0625 -5.25 4.0625 C-5.25 3.4025 -5.25 2.7425 -5.25 2.0625 C-2.25 0.0625 -2.25 0.0625 0 0 Z " fill="#87818B" transform="translate(257.25,235.9375)"/>
<path d="M0 0 C-0.55479057 3.84885956 -2.24418315 5.59260518 -5 8.25 C-5.721875 8.95640625 -6.44375 9.6628125 -7.1875 10.390625 C-9 12 -9 12 -10 12 C-10 10.35 -10 8.7 -10 7 C-9.34 7 -8.68 7 -8 7 C-7.67 6.01 -7.34 5.02 -7 4 C-6.34 4 -5.68 4 -5 4 C-5 3.01 -5 2.02 -5 1 C-2 0 -2 0 0 0 Z " fill="#83747E" transform="translate(325,143)"/>
<path d="M0 0 C0.66 0 1.32 0 2 0 C2 1.32 2 2.64 2 4 C1.34 4 0.68 4 0 4 C0 4.66 0 5.32 0 6 C-0.66 6 -1.32 6 -2 6 C-2.66 7.32 -3.32 8.64 -4 10 C-6.3125 10.25 -6.3125 10.25 -9 10 C-10.8125 8 -10.8125 8 -12 6 C-9.69 6.33 -7.38 6.66 -5 7 C-4.34 5.68 -3.68 4.36 -3 3 C-2.01 3 -1.02 3 0 3 C0 2.01 0 1.02 0 0 Z " fill="#837389" transform="translate(188,362)"/>
<path d="M0 0 C1.134375 0.020625 2.26875 0.04125 3.4375 0.0625 C2.48706626 1.40147583 1.52690853 2.73355427 0.5625 4.0625 C0.02882813 4.805 -0.50484375 5.5475 -1.0546875 6.3125 C-1.55226563 6.89 -2.04984375 7.4675 -2.5625 8.0625 C-3.2225 8.0625 -3.8825 8.0625 -4.5625 8.0625 C-4.5625 8.7225 -4.5625 9.3825 -4.5625 10.0625 C-5.2225 10.0625 -5.8825 10.0625 -6.5625 10.0625 C-6.8925 8.7425 -7.2225 7.4225 -7.5625 6.0625 C-6.5725 6.0625 -5.5825 6.0625 -4.5625 6.0625 C-4.583125 5.258125 -4.60375 4.45375 -4.625 3.625 C-4.52750049 -0.37247981 -4.13731851 0.07258454 0 0 Z " fill="#615C74" transform="translate(316.5625,336.9375)"/>
<path d="M0 0 C0 0.66 0 1.32 0 2 C-0.66 2 -1.32 2 -2 2 C-2 3.32 -2 4.64 -2 6 C-3.3125 8.25 -3.3125 8.25 -5 10 C-5.99 10 -6.98 10 -8 10 C-8 10.66 -8 11.32 -8 12 C-8.66 12 -9.32 12 -10 12 C-9.40716913 8.39428893 -7.97258223 6.45570562 -5.5625 3.75 C-4.94503906 3.04359375 -4.32757813 2.3371875 -3.69140625 1.609375 C-2 0 -2 0 0 0 Z " fill="#666474" transform="translate(166,246)"/>
<path d="M0 0 C0.99 0.33 1.98 0.66 3 1 C3 1.66 3 2.32 3 3 C2.34 3 1.68 3 1 3 C1 3.66 1 4.32 1 5 C0.34 5 -0.32 5 -1 5 C-1 5.66 -1 6.32 -1 7 C-1.66 7 -2.32 7 -3 7 C-3 7.66 -3 8.32 -3 9 C-3.66 9 -4.32 9 -5 9 C-5.33 9.66 -5.66 10.32 -6 11 C-6.40060526 7.49470398 -6.15413141 6.2260594 -4.125 3.25 C-2 1 -2 1 0 0 Z " fill="#5C5C72" transform="translate(193,273)"/>
<path d="M0 0 C0.33 1.32 0.66 2.64 1 4 C0.34 4 -0.32 4 -1 4 C-1.33 4.99 -1.66 5.98 -2 7 C-2.99 6.67 -3.98 6.34 -5 6 C-7.19038423 7.37168238 -7.19038423 7.37168238 -9 9 C-9.66 8.67 -10.32 8.34 -11 8 C-9.92643323 6.84501103 -8.84070212 5.70132133 -7.75 4.5625 C-7.14671875 3.92441406 -6.5434375 3.28632813 -5.921875 2.62890625 C-3.89951984 0.91483694 -2.58729395 0.40641122 0 0 Z " fill="#1E2840" transform="translate(216,197)"/>
<path d="M0 0 C-0.7425 0.391875 -1.485 0.78375 -2.25 1.1875 C-5.19561041 3.12892504 -6.84099812 5.2454114 -9 8 C-9.66 8 -10.32 8 -11 8 C-11.33 9.32 -11.66 10.64 -12 12 C-12.99 12 -13.98 12 -15 12 C-14.67 10.68 -14.34 9.36 -14 8 C-12.68 7.67 -11.36 7.34 -10 7 C-9.938125 6.236875 -9.87625 5.47375 -9.8125 4.6875 C-9 2 -9 2 -6.6875 0.125 C-3.81325108 -1.07817396 -2.82652171 -1.15154588 0 0 Z " fill="#1A2740" transform="translate(233,185)"/>
<path d="M0 0 C0.598125 0.20625 1.19625 0.4125 1.8125 0.625 C1.4825 1.615 1.1525 2.605 0.8125 3.625 C0.1525 3.625 -0.5075 3.625 -1.1875 3.625 C-1.1875 4.285 -1.1875 4.945 -1.1875 5.625 C-1.8475 5.625 -2.5075 5.625 -3.1875 5.625 C-3.1875 6.285 -3.1875 6.945 -3.1875 7.625 C-3.8475 7.625 -4.5075 7.625 -5.1875 7.625 C-5.5175 8.285 -5.8475 8.945 -6.1875 9.625 C-5.69921875 3.5703125 -5.69921875 3.5703125 -5.1875 1.625 C-2.1875 -0.375 -2.1875 -0.375 0 0 Z " fill="#544F65" transform="translate(197.1875,354.375)"/>
<path d="M0 0 C0.66 0.33 1.32 0.66 2 1 C2 1.66 2 2.32 2 3 C2.99 3 3.98 3 5 3 C5.33 4.65 5.66 6.3 6 8 C6.66 8 7.32 8 8 8 C8 8.99 8 9.98 8 11 C7.34 11 6.68 11 6 11 C6 10.34 6 9.68 6 9 C5.34 9 4.68 9 4 9 C4 8.34 4 7.68 4 7 C3.34 7 2.68 7 2 7 C2 6.34 2 5.68 2 5 C1.34 5 0.68 5 0 5 C0 4.34 0 3.68 0 3 C-0.66 3 -1.32 3 -2 3 C-2 2.34 -2 1.68 -2 1 C-1.34 0.67 -0.68 0.34 0 0 Z " fill="#706A7B" transform="translate(160,349)"/>
<path d="M0 0 C2.97 0.495 2.97 0.495 6 1 C6 2.32 6 3.64 6 5 C6.99 5 7.98 5 9 5 C9 5.66 9 6.32 9 7 C9.99 7.33 10.98 7.66 12 8 C11.67 9.32 11.34 10.64 11 12 C9.16364422 10.19047409 7.33083792 8.37759362 5.5 6.5625 C4.97535156 6.04623047 4.45070312 5.52996094 3.91015625 4.99804688 C2.58775448 3.68423213 1.29164432 2.34406495 0 1 C0 0.67 0 0.34 0 0 Z " fill="#757684" transform="translate(128,320)"/>
<path d="M0 0 C1.32 0 2.64 0 4 0 C4 0.66 4 1.32 4 2 C3.34 2 2.68 2 2 2 C1.67 2.99 1.34 3.98 1 5 C0.34 5 -0.32 5 -1 5 C-1 5.66 -1 6.32 -1 7 C-1.66 7 -2.32 7 -3 7 C-3 7.66 -3 8.32 -3 9 C-4.98 9.99 -4.98 9.99 -7 11 C-7 10.01 -7 9.02 -7 8 C-6.34 8 -5.68 8 -5 8 C-5 7.34 -5 6.68 -5 6 C-4.34 6 -3.68 6 -3 6 C-3 4.68 -3 3.36 -3 2 C-2.01 2 -1.02 2 0 2 C0 1.34 0 0.68 0 0 Z " fill="#554A5F" transform="translate(350,303)"/>
<path d="M0 0 C0.66 0 1.32 0 2 0 C2 2.1875 2 2.1875 1 5 C-1.46066713 7.0496546 -4.05423654 8.73494821 -7 10 C-7.66 9.67 -8.32 9.34 -9 9 C-8.34 8.01 -7.68 7.02 -7 6 C-6.34 6 -5.68 6 -5 6 C-5.33 5.01 -5.66 4.02 -6 3 C-4.68 3.33 -3.36 3.66 -2 4 C-2 3.34 -2 2.68 -2 2 C-1.34 2 -0.68 2 0 2 C0 1.34 0 0.68 0 0 Z " fill="#1A243B" transform="translate(171,242)"/>
<path d="M0 0 C0.66 0.99 1.32 1.98 2 3 C0.68 3.33 -0.64 3.66 -2 4 C-2.33 5.32 -2.66 6.64 -3 8 C-3.99 8 -4.98 8 -6 8 C-6 8.66 -6 9.32 -6 10 C-6.66 10 -7.32 10 -8 10 C-8 10.66 -8 11.32 -8 12 C-8.99 11.67 -9.98 11.34 -11 11 C-10.34 10.67 -9.68 10.34 -9 10 C-9 9.34 -9 8.68 -9 8 C-7.28515625 6.30859375 -7.28515625 6.30859375 -5.0625 4.4375 C-3.96615234 3.50744141 -3.96615234 3.50744141 -2.84765625 2.55859375 C-1.93306641 1.78708984 -1.93306641 1.78708984 -1 1 C-0.67 0.67 -0.34 0.34 0 0 Z " fill="#7B7584" transform="translate(177,234)"/>
<path d="M0 0 C4.13621084 3.3810038 7.81316569 6.66590534 11 11 C9.35 11 7.7 11 6 11 C5.67 10.01 5.34 9.02 5 8 C4.34 7.360625 3.68 6.72125 3 6.0625 C0.88912786 3.8856631 0.57588838 2.87344306 0 0 Z " fill="#626472" transform="translate(285,264)"/>
<path d="M0 0 C0.99 0.495 0.99 0.495 2 1 C2 1.66 2 2.32 2 3 C4.475 3.99 4.475 3.99 7 5 C7 5.66 7 6.32 7 7 C7.66 7 8.32 7 9 7 C9 7.66 9 8.32 9 9 C10.32 8.34 11.64 7.68 13 7 C12.34 8.32 11.68 9.64 11 11 C8.6875 10.8125 8.6875 10.8125 6 10 C4.375 7.625 4.375 7.625 3 5 C2.443125 4.443125 1.88625 3.88625 1.3125 3.3125 C0.879375 2.879375 0.44625 2.44625 0 2 C0 1.34 0 0.68 0 0 Z " fill="#77757D" transform="translate(296,275)"/>
<path d="M0 0 C0 3 0 3 -2.4375 5.5 C-3.283125 6.325 -4.12875 7.15 -5 8 C-5.33 8.99 -5.66 9.98 -6 11 C-6.66 11 -7.32 11 -8 11 C-8.33 11.99 -8.66 12.98 -9 14 C-11.0625 14.6875 -11.0625 14.6875 -13 15 C-13 14.34 -13 13.68 -13 13 C-12.34 13 -11.68 13 -11 13 C-11 12.34 -11 11.68 -11 11 C-10.34 11 -9.68 11 -9 11 C-9 10.34 -9 9.68 -9 9 C-8.34 9 -7.68 9 -7 9 C-6.773125 8.443125 -6.54625 7.88625 -6.3125 7.3125 C-4.64103234 4.36753316 -2.44723648 2.31843456 0 0 Z " fill="#898693" transform="translate(243,248)"/>
<path d="M0 0 C0 3.72055546 -0.81297638 5.01106771 -3 8 C-6.1875 10.3125 -6.1875 10.3125 -9 12 C-9.66 11.67 -10.32 11.34 -11 11 C-7.37 7.37 -3.74 3.74 0 0 Z " fill="#726E78" transform="translate(373,217)"/>
<path d="M0 0 C1.32 0.33 2.64 0.66 4 1 C3.50628906 1.48210937 3.01257813 1.96421875 2.50390625 2.4609375 C1.86324219 3.09257812 1.22257813 3.72421875 0.5625 4.375 C-0.07558594 5.00148438 -0.71367187 5.62796875 -1.37109375 6.2734375 C-3.07882176 7.91723061 -3.07882176 7.91723061 -4 10 C-4.66 9.67 -5.32 9.34 -6 9 C-5.67 7.68 -5.34 6.36 -5 5 C-4.34 5 -3.68 5 -3 5 C-3 4.34 -3 3.68 -3 3 C-2.34 3 -1.68 3 -1 3 C-0.67 2.01 -0.34 1.02 0 0 Z " fill="#636575" transform="translate(202,264)"/>
<path d="M0 0 C1.65 0 3.3 0 5 0 C3.50902342 3.7952131 1.24299151 5.61042731 -2 8 C-2 6.02 -2 4.04 -2 2 C-1.34 2 -0.68 2 0 2 C0 1.34 0 0.68 0 0 Z " fill="#727482" transform="translate(291,173)"/>
<path d="M0 0 C2 3 2 3 2 5 C1.34 5 0.68 5 0 5 C0 5.66 0 6.32 0 7 C-1.875 8.0625 -1.875 8.0625 -4 9 C-4.66 8.67 -5.32 8.34 -6 8 C-6 7.34 -6 6.68 -6 6 C-5.34 6 -4.68 6 -4 6 C-4 5.34 -4 4.68 -4 4 C-3.34 4 -2.68 4 -2 4 C-1.34 2.68 -0.68 1.36 0 0 Z " fill="#626473" transform="translate(202,289)"/>
<path d="M0 0 C0.99 0.33 1.98 0.66 3 1 C2.75 2.875 2.75 2.875 2 5 C-0.0625 6.25 -0.0625 6.25 -2 7 C-2.99 6.34 -3.98 5.68 -5 5 C-5 4.34 -5 3.68 -5 3 C-4.360625 2.690625 -3.72125 2.38125 -3.0625 2.0625 C-1.06389179 1.1654837 -1.06389179 1.1654837 0 0 Z " fill="#152644" transform="translate(251,243)"/>
<path d="M0 0 C4.56048012 3.61251516 8.01665146 6.98797445 11 12 C9.68 12 8.36 12 7 12 C7 11.34 7 10.68 7 10 C6.34 9.67 5.68 9.34 5 9 C5 8.34 5 7.68 5 7 C4.175 6.175 3.35 5.35 2.5 4.5 C1.675 3.675 0.85 2.85 0 2 C0 1.34 0 0.68 0 0 Z " fill="#90818B" transform="translate(267,245)"/>
<path d="M0 0 C0.99 0.33 1.98 0.66 3 1 C1.6905332 2.33631236 0.37734515 3.66897925 -0.9375 5 C-1.66839844 5.7425 -2.39929688 6.485 -3.15234375 7.25 C-5 9 -5 9 -6 9 C-6.1875 6.625 -6.1875 6.625 -6 4 C-3 2 -3 2 0 2 C0 1.34 0 0.68 0 0 Z " fill="#797087" transform="translate(268,199)"/>
<path d="M0 0 C2.31 0.33 4.62 0.66 7 1 C6.01 1.33 5.02 1.66 4 2 C3.67 2.66 3.34 3.32 3 4 C1.35636866 4.72159424 -0.31050386 5.39351421 -2 6 C-2 4.68 -2 3.36 -2 2 C-1.34 2 -0.68 2 0 2 C0 1.34 0 0.68 0 0 Z " fill="#172741" transform="translate(246,165)"/>
<path d="M0 0 C2 3 2 3 2 6 C3.32 6.33 4.64 6.66 6 7 C5.34 7 4.68 7 4 7 C3.67 7.66 3.34 8.32 3 9 C0.69 6.69 -1.62 4.38 -4 2 C-2.68 1.34 -1.36 0.68 0 0 Z " fill="#71707E" transform="translate(172,359)"/>
<path d="M0 0 C2.475 0.495 2.475 0.495 5 1 C5 1.99 5 2.98 5 4 C6.32 4.33 7.64 4.66 9 5 C9.33 6.65 9.66 8.3 10 10 C2.51708428 3.84965831 2.51708428 3.84965831 0 0 Z " fill="#595565" transform="translate(278,319)"/>
<path d="M0 0 C0.99 0.33 1.98 0.66 3 1 C2.65120368 4.25543229 1.97866739 5.01873107 -0.5625 7.25 C-1.7690625 8.11625 -1.7690625 8.11625 -3 9 C-3 7.35 -3 5.7 -3 4 C-2.01 3.67 -1.02 3.34 0 3 C0 2.01 0 1.02 0 0 Z " fill="#6B697F" transform="translate(251,297)"/>
<path d="M0 0 C-1.5830577 4.2742558 -4.50568404 6.26531794 -8 9 C-8 8.01 -8 7.02 -8 6 C-8.66 5.67 -9.32 5.34 -10 5 C-8.35 5 -6.7 5 -5 5 C-4.814375 4.0409375 -4.814375 4.0409375 -4.625 3.0625 C-4.41875 2.381875 -4.2125 1.70125 -4 1 C-2 0 -2 0 0 0 Z " fill="#727082" transform="translate(370,286)"/>
<path d="M0 0 C0.66 0.33 1.32 0.66 2 1 C1.3125 3.375 1.3125 3.375 0 6 C-2.91456338 7.56938028 -4.67941669 8 -8 8 C-5.36 5.36 -2.72 2.72 0 0 Z " fill="#96939F" transform="translate(211,280)"/>
<path d="M0 0 C-0.66 1.32 -1.32 2.64 -2 4 C-2.8971875 3.6596875 -2.8971875 3.6596875 -3.8125 3.3125 C-4.534375 3.209375 -5.25625 3.10625 -6 3 C-7.77190909 4.35444301 -7.77190909 4.35444301 -9 6 C-9.66 5.67 -10.32 5.34 -11 5 C-11 4.34 -11 3.68 -11 3 C-10.34 3 -9.68 3 -9 3 C-9 2.34 -9 1.68 -9 1 C-5.92677456 0.08941469 -3.19902639 -0.08886184 0 0 Z " fill="#484E63" transform="translate(257,241)"/>
<path d="M0 0 C0.66 1.32 1.32 2.64 2 4 C0.75 5.5625 0.75 5.5625 -1 7 C-3.1875 6.6875 -3.1875 6.6875 -5 6 C-4.75 4.125 -4.75 4.125 -4 2 C-1.9375 0.75 -1.9375 0.75 0 0 Z " fill="#1A2742" transform="translate(242,171)"/>
<path d="M0 0 C0.33 0.66 0.66 1.32 1 2 C1.99 2.33 2.98 2.66 4 3 C3.01 4.485 3.01 4.485 2 6 C1.01 6 0.02 6 -1 6 C-1 6.66 -1 7.32 -1 8 C-1.66 8 -2.32 8 -3 8 C-2.37240135 5.07120629 -1.41377341 2.63904371 0 0 Z " fill="#243049" transform="translate(245,246)"/>
<path d="M0 0 C0.66 0 1.32 0 2 0 C2 1.65 2 3.3 2 5 C1.34 5 0.68 5 0 5 C-0.33 5.66 -0.66 6.32 -1 7 C-2.32 6.67 -3.64 6.34 -5 6 C-3.38405168 3.95880212 -1.7143618 1.95927063 0 0 Z " fill="#655B74" transform="translate(201,209)"/>
<path d="M0 0 C0.66 0.33 1.32 0.66 2 1 C1.195625 1.763125 0.39125 2.52625 -0.4375 3.3125 C-3.16799024 5.79430898 -3.16799024 5.79430898 -4 9 C-4.99 9 -5.98 9 -7 9 C-7 9.66 -7 10.32 -7 11 C-7.66 11 -8.32 11 -9 11 C-7.59155282 7.78475695 -5.89655214 5.67816132 -3.375 3.25 C-2.74335938 2.63640625 -2.11171875 2.0228125 -1.4609375 1.390625 C-0.73777344 0.70226562 -0.73777344 0.70226562 0 0 Z " fill="#9A97AA" transform="translate(253,156)"/>
<path d="M0 0 C1.32 0.99 2.64 1.98 4 3 C1.03 5.475 1.03 5.475 -2 8 C-2 5.69 -2 3.38 -2 1 C-1.34 0.67 -0.68 0.34 0 0 Z " fill="#5D6375" transform="translate(339,312)"/>
<path d="M0 0 C0.66 1.32 1.32 2.64 2 4 C1.01 4 0.02 4 -1 4 C-1 4.66 -1 5.32 -1 6 C-1.66 6 -2.32 6 -3 6 C-3 6.66 -3 7.32 -3 8 C-4.32 7.67 -5.64 7.34 -7 7 C-4.69 4.69 -2.38 2.38 0 0 Z " fill="#71717C" transform="translate(195,297)"/>
<path d="M0 0 C1.32 0.66 2.64 1.32 4 2 C0.535 4.97 0.535 4.97 -3 8 C-3.33 6.68 -3.66 5.36 -4 4 C-3.01 4 -2.02 4 -1 4 C-0.67 2.68 -0.34 1.36 0 0 Z " fill="#706C83" transform="translate(246,219)"/>
<path d="M0 0 C0 0.99 0 1.98 0 3 C-2.8125 5.75 -2.8125 5.75 -6 8 C-6.99 7.67 -7.98 7.34 -9 7 C-7.06604999 4.09907498 -6.28812528 3.37695617 -3.375 1.8125 C-2.26125 1.214375 -1.1475 0.61625 0 0 Z " fill="#1C2234" transform="translate(211,202)"/>
<path d="M0 0 C0.66 0 1.32 0 2 0 C2 0.66 2 1.32 2 2 C1.34 2 0.68 2 0 2 C-0.04125 2.61875 -0.0825 3.2375 -0.125 3.875 C-0.41375 4.57625 -0.7025 5.2775 -1 6 C-4.0625 7.25 -4.0625 7.25 -7 8 C-6.02133662 6.85373678 -5.04205413 5.70800212 -4.0625 4.5625 C-3.51722656 3.92441406 -2.97195313 3.28632813 -2.41015625 2.62890625 C-1.63204305 1.73008851 -0.84063472 0.84063472 0 0 Z " fill="#7B727C" transform="translate(396,194)"/>
<path d="M0 0 C0.556875 0.28875 1.11375 0.5775 1.6875 0.875 C4.08494645 2.0413253 6.51596939 3.0339881 9 4 C9 5.65 9 7.3 9 9 C7.87105124 8.06725891 6.74699124 7.12859878 5.625 6.1875 C4.99851562 5.66542969 4.37203125 5.14335937 3.7265625 4.60546875 C2 3 2 3 0 0 Z " fill="#5C5967" transform="translate(269,310)"/>
<path d="M0 0 C0.33 0.66 0.66 1.32 1 2 C-2.625 6.875 -2.625 6.875 -6 8 C-4.52307692 2.33846154 -4.52307692 2.33846154 -1.875 0.625 C-0.946875 0.315625 -0.946875 0.315625 0 0 Z " fill="#232D45" transform="translate(192,221)"/>
<path d="M0 0 C0.66 0.66 1.32 1.32 2 2 C0.02 4.31 -1.96 6.62 -4 9 C-4 6.16032769 -3.59732819 3.76264289 -3 1 C-2.01 0.67 -1.02 0.34 0 0 Z " fill="#676978" transform="translate(255,211)"/>
<path d="M0 0 C1.0828125 0.37125 1.0828125 0.37125 2.1875 0.75 C-0.8125 2.75 -0.8125 2.75 -2.9375 3.25 C-3.55625 3.415 -4.175 3.58 -4.8125 3.75 C-5.1425 4.41 -5.4725 5.07 -5.8125 5.75 C-6.4725 5.09 -7.1325 4.43 -7.8125 3.75 C-3.50480769 -0.31153846 -3.50480769 -0.31153846 0 0 Z " fill="#1A2641" transform="translate(189.8125,307.25)"/>
<path d="M0 0 C1.98 0 3.96 0 6 0 C4.38405168 2.04119788 2.7143618 4.04072937 1 6 C0.34 6 -0.32 6 -1 6 C-0.67 4.02 -0.34 2.04 0 0 Z " fill="#6B6E7D" transform="translate(372,279)"/>
<path d="M0 0 C1.32 0.66 2.64 1.32 4 2 C3.1875 3.9375 3.1875 3.9375 2 6 C1.01 6.33 0.02 6.66 -1 7 C-1.04254356 5.00045254 -1.04080783 2.99958364 -1 1 C-0.67 0.67 -0.34 0.34 0 0 Z " fill="#132749" transform="translate(340,254)"/>
<path d="M0 0 C1.65 0.33 3.3 0.66 5 1 C4.01 2.32 3.02 3.64 2 5 C1.01 4.67 0.02 4.34 -1 4 C-0.67 2.68 -0.34 1.36 0 0 Z " fill="#38415A" transform="translate(198,350)"/>
<path d="M0 0 C0.66 0 1.32 0 2 0 C2 0.99 2 1.98 2 3 C2.66 3.33 3.32 3.66 4 4 C3.67 4.99 3.34 5.98 3 7 C2.34 7 1.68 7 1 7 C1 6.34 1 5.68 1 5 C0.34 5 -0.32 5 -1 5 C-0.67 3.35 -0.34 1.7 0 0 Z " fill="#544958" transform="translate(117,305)"/>
<path d="M0 0 C0.66 0 1.32 0 2 0 C1.67 1.65 1.34 3.3 1 5 C-0.98 5.33 -2.96 5.66 -5 6 C-3.38405168 3.95880212 -1.7143618 1.95927063 0 0 Z " fill="#606270" transform="translate(314,276)"/>
<path d="M0 0 C0.99 0 1.98 0 3 0 C2.67 1.65 2.34 3.3 2 5 C-1.75 6.125 -1.75 6.125 -4 5 C-2.1875 2.5 -2.1875 2.5 0 0 Z " fill="#5F6473" transform="translate(217,274)"/>
<path d="M0 0 C0.99 0 1.98 0 3 0 C2.42655063 2.86724686 2.1385485 3.8614515 0 6 C-0.99 6 -1.98 6 -3 6 C-3 5.01 -3 4.02 -3 3 C-2.01 3 -1.02 3 0 3 C0 2.01 0 1.02 0 0 Z " fill="#555969" transform="translate(272,193)"/>
<path d="M0 0 C0.33 0.66 0.66 1.32 1 2 C1.66 2.33 2.32 2.66 3 3 C0.03 5.475 0.03 5.475 -3 8 C-3.36923077 3.44615385 -3.36923077 3.44615385 -1.5 1.1875 C-1.005 0.795625 -0.51 0.40375 0 0 Z " fill="#7A7B88" transform="translate(307,158)"/>
<path d="M0 0 C1.32 0.33 2.64 0.66 4 1 C2.35 2.98 0.7 4.96 -1 7 C-1.33 5.68 -1.66 4.36 -2 3 C-1.34 3 -0.68 3 0 3 C0 2.01 0 1.02 0 0 Z " fill="#6C667D" transform="translate(323,329)"/>
<path d="M0 0 C0 0.99 0 1.98 0 3 C-2.31 4.32 -4.62 5.64 -7 7 C-6.67 5.68 -6.34 4.36 -6 3 C-5.01 3 -4.02 3 -3 3 C-3 2.34 -3 1.68 -3 1 C-2.01 0.67 -1.02 0.34 0 0 Z " fill="#1A2740" transform="translate(330,265)"/>
<path d="M0 0 C0.33 0.66 0.66 1.32 1 2 C0 5 0 5 -2 6.0625 C-2.66 6.371875 -3.32 6.68125 -4 7 C-4.33 7.66 -4.66 8.32 -5 9 C-5.66 9 -6.32 9 -7 9 C-5.44499019 5.18315774 -2.96404505 2.80804268 0 0 Z " fill="#9D939C" transform="translate(223,187)"/>
<path d="M0 0 C0.66 0 1.32 0 2 0 C1.64950425 3.24208567 1.43778819 4.61527704 -1.0625 6.8125 C-1.701875 7.204375 -2.34125 7.59625 -3 8 C-3 6.35 -3 4.7 -3 3 C-2.34 3 -1.68 3 -1 3 C-0.67 2.01 -0.34 1.02 0 0 Z " fill="#73717F" transform="translate(318,147)"/>
<path d="M0 0 C0.99 0.33 1.98 0.66 3 1 C3 1.66 3 2.32 3 3 C2.34 3 1.68 3 1 3 C1 3.66 1 4.32 1 5 C0.34 5 -0.32 5 -1 5 C-1.33 5.66 -1.66 6.32 -2 7 C-2.125 4.625 -2.125 4.625 -2 2 C-1.34 1.34 -0.68 0.68 0 0 Z " fill="#6F6F81" transform="translate(189,277)"/>
<path d="M0 0 C2.31 1.98 4.62 3.96 7 6 C6.34 6.66 5.68 7.32 5 8 C5 7.34 5 6.68 5 6 C3.68 5.67 2.36 5.34 1 5 C0.67 3.35 0.34 1.7 0 0 Z " fill="#6C6B78" transform="translate(278,257)"/>
<path d="M0 0 C0.66 0 1.32 0 2 0 C2 0.66 2 1.32 2 2 C3.32 2.66 4.64 3.32 6 4 C5.01 4.495 5.01 4.495 4 5 C3.01 4.67 2.02 4.34 1 4 C0.01 4.495 0.01 4.495 -1 5 C-1.33 4.01 -1.66 3.02 -2 2 C-1.34 2 -0.68 2 0 2 C0 1.34 0 0.68 0 0 Z " fill="#132849" transform="translate(158,256)"/>
<path d="M0 0 C0.33 0.66 0.66 1.32 1 2 C0 5 0 5 -2.4375 6.75 C-3.7059375 7.36875 -3.7059375 7.36875 -5 8 C-5.66 7.67 -6.32 7.34 -7 7 C-4.69 4.69 -2.38 2.38 0 0 Z " fill="#948B97" transform="translate(352,238)"/>
<path d="M0 0 C1.32 0 2.64 0 4 0 C2.63016497 3.16115776 2.0109362 3.9927092 -1 6 C-1.042721 4.33388095 -1.04063832 2.66617115 -1 1 C-0.67 0.67 -0.34 0.34 0 0 Z " fill="#6E6D7C" transform="translate(284,181)"/>
<path d="M0 0 C0 0.66 0 1.32 0 2 C-0.66 2 -1.32 2 -2 2 C-2 3.32 -2 4.64 -2 6 C-2.33 6.66 -2.66 7.32 -3 8 C-3.66 8 -4.32 8 -5 8 C-5.36625971 3.48279689 -5.36625971 3.48279689 -3.625 1.1875 C-2 0 -2 0 0 0 Z " fill="#524765" transform="translate(166,246)"/>
<path d="M0 0 C0.66 0.33 1.32 0.66 2 1 C-0.84936103 4.00765886 -3.23511958 6.27845212 -7 8 C-6.02133662 6.85373678 -5.04205413 5.70800212 -4.0625 4.5625 C-3.51722656 3.92441406 -2.97195312 3.28632813 -2.41015625 2.62890625 C-1.63204305 1.73008851 -0.84063472 0.84063472 0 0 Z " fill="#716A76" transform="translate(212,198)"/>
<path d="M0 0 C0.66 0 1.32 0 2 0 C2 1.32 2 2.64 2 4 C0 5.75 0 5.75 -2 7 C-2.66 6.34 -3.32 5.68 -4 5 C-2.71937515 3.2925002 -1.38232443 1.62626404 0 0 Z " fill="#776C7E" transform="translate(242,167)"/>
<path d="M0 0 C0.66 0 1.32 0 2 0 C2 0.99 2 1.98 2 3 C-0.31 4.32 -2.62 5.64 -5 7 C-4.34 5.35 -3.68 3.7 -3 2 C-2.01 2 -1.02 2 0 2 C0 1.34 0 0.68 0 0 Z " fill="#12243F" transform="translate(260,153)"/>
<path d="M0 0 C0.66 0 1.32 0 2 0 C2 1.32 2 2.64 2 4 C1.34 4 0.68 4 0 4 C0 4.66 0 5.32 0 6 C-0.99 6 -1.98 6 -3 6 C-3 5.01 -3 4.02 -3 3 C-2.01 3 -1.02 3 0 3 C0 2.01 0 1.02 0 0 Z " fill="#585C70" transform="translate(188,362)"/>
<path d="M0 0 C2.97 0.495 2.97 0.495 6 1 C6 2.65 6 4.3 6 6 C3.97945196 4.35830472 1.97956942 2.69088222 0 1 C0 0.67 0 0.34 0 0 Z " fill="#84788A" transform="translate(128,320)"/>
<path d="M0 0 C0.99 0.33 1.98 0.66 3 1 C2.34 1 1.68 1 1 1 C0.34 2.32 -0.32 3.64 -1 5 C-1.66 5 -2.32 5 -3 5 C-3 5.66 -3 6.32 -3 7 C-3.66 7 -4.32 7 -5 7 C-4.1875 5.0625 -4.1875 5.0625 -3 3 C-2.01 2.67 -1.02 2.34 0 2 C0 1.34 0 0.68 0 0 Z " fill="#A28CA7" transform="translate(178,290)"/>
</svg>
